<svg version="1.2" xmlns="http://www.w3.org/2000/svg" viewBox="0 0 1978 862" width="1978" height="862">
	<title>hipercard-svg</title>
	<style>
		.s0 { fill: #b0b8d0 } 
		.s1 { fill: #757d92 } 
	</style>
	<path id="Retângulo_5" class="s0" d="m841 71.7h294.9v530.1h-294.9z"/>
	<path id="_Path_" class="s1" d="m859.7 337c-0.1-25.5 2.8-50.9 8.5-75.7 5.8-24.7 14.3-48.8 25.3-71.8 11.2-22.8 24.8-44.3 40.8-64.2 16-19.8 34.1-37.6 54.2-53.4-101.5-79.8-239.6-94.5-355.8-38.2-116 56.4-189.7 174.2-189.7 303.3 0 129 73.7 246.8 189.7 303.2 116.2 56.4 254.3 41.6 355.8-38.2-20.1-15.7-38.2-33.6-54.2-53.4-16-19.8-29.7-41.3-40.8-64.3-11.1-22.8-19.5-46.9-25.3-71.7-5.7-24.8-8.6-50.2-8.5-75.6z"/>
	<path id="Caminho_99" class="s1" d="m1534 337c0 63.2-17.8 125.2-51.4 178.9-33.5 53.5-81.5 96.6-138.4 124.3-57 27.6-120.5 38.7-183.4 32-62.9-6.8-122.6-31.1-172.3-70.3 40.1-31.5 72.5-71.7 94.9-117.7 22.3-45.8 33.9-96.2 33.9-147.3 0-51.1-11.6-101.4-33.9-147.4-22.4-45.9-54.8-86.1-94.9-117.7 49.7-39.1 109.5-63.4 172.3-70.2 63-6.7 126.5 4.3 183.5 32 56.8 27.7 104.8 70.8 138.4 124.4 33.5 53.7 51.3 115.6 51.3 179z"/>
	<path id="Caminho_98" fill-rule="evenodd" class="s1" d="m574.6 846.5v-53.6c0-16.5-7.3-25.4-21.2-25.4-13.9 0-23.5 8.8-23.5 25.6v53.4h-21.2v-53.6c0-16.5-6.6-25.4-20.9-25.4-14.4 0-23.7 8.8-23.7 25.6v53.4h-21.1v-96.5h21v12c1.5-2.3 3.3-4.3 5.4-6.2 2.1-1.8 4.3-3.4 6.8-4.7 2.5-1.2 5-2.1 7.7-2.7 2.8-0.6 5.5-0.8 8.3-0.7 3.2-0.1 6.3 0.2 9.4 0.9 3.1 0.7 6 1.9 8.9 3.3 2.8 1.5 5.3 3.4 7.6 5.6 2.3 2.1 4.3 4.7 5.9 7.4 1.8-2.8 4-5.4 6.5-7.6 2.4-2.2 5.1-4.1 8.2-5.7 2.9-1.4 6-2.5 9.2-3.2 3.3-0.6 6.7-0.9 10-0.7 23.4 0.2 37.9 15.6 37.9 38.3v60.5zm334.6-77.3h-34.3v43.6c0 9.7 3.6 16.1 13.9 16.1q2.5-0.1 5-0.5 2.3-0.4 4.7-1.1 2.4-0.6 4.6-1.6 2.2-0.9 4.3-2.2l6 18q-2.8 1.8-6 3.1-3.1 1.4-6.5 2.4-3.4 1-6.7 1.4-3.5 0.5-6.9 0.5c-24.9 0-33.4-13.4-33.4-35.7v-44h-19.7v-19.1h19.7v-29.3h21.1v29.3h34.3zm182.7-21.5q1.9 0.2 3.8 0.5 1.8 0.4 3.7 0.9 1.9 0.5 3.7 1.1l-6.4 19.8q-1.6-0.6-3.3-1.1-1.6-0.4-3.3-0.8-1.5-0.3-3.2-0.4-1.7-0.1-3.4-0.1c-13.7 0-20.6 8.7-20.6 24.8v54h-21v-96.4h20.8v11.8c1.2-2.3 2.8-4.3 4.7-6.1 1.8-1.8 3.9-3.3 6-4.5 2.3-1.3 4.7-2.2 7.1-2.8 2.5-0.6 5.1-0.9 7.7-0.8q1.8 0 3.7 0.1zm-283.3 26.9q-3.4-1.9-7-3.5-3.7-1.4-7.5-2.5-3.8-1-7.6-1.6-4-0.5-8-0.6c-11.4 0-18.3 4.2-18.3 11.3 0 6.4 7.3 8.3 16.4 9.4l9.9 1.4c20.9 3.1 33.6 11.9 33.6 28.9 0 18.3-16.2 31.4-44 31.4q-5.6 0.2-11.1-0.6-5.4-0.7-10.8-2.3-5.3-1.5-10.3-4-5-2.4-9.5-5.6l9.5-16.3q3.4 2.5 7.3 4.5 3.8 2 8 3.3 4 1.2 8.4 1.8 4.2 0.6 8.5 0.4c14.3 0 22-4.2 22-11.6 0-5.5-5.5-8.5-17-10.1l-9.9-1.5c-21.5-3-33.2-12.6-33.2-28.3 0-19.2 15.8-30.9 40.3-30.9q5.1-0.2 10.2 0.3 5.2 0.6 10.2 1.9 4.9 1.3 9.7 3.3 4.8 1.9 9.2 4.6zm574.6-27q2 0.2 3.9 0.5 1.9 0.4 3.6 0.9 1.9 0.5 3.7 1.1l-6.4 19.8q-1.6-0.6-3.2-1.1-1.7-0.4-3.2-0.8-1.7-0.3-3.4-0.4-1.7-0.1-3.4-0.1c-13.7 0-20.5 8.7-20.5 24.8v54h-21v-96.4h20.8v11.8c1.3-2.3 2.8-4.3 4.6-6.1 1.8-1.8 3.9-3.3 6.2-4.5 2.1-1.3 4.5-2.2 7-2.8 2.4-0.6 5-0.9 7.6-0.8q1.9 0 3.7 0.1zm-273.9 50.4c0-29.2 20.4-50.6 51.5-50.6q4.6-0.2 9.3 0.4 4.6 0.6 9.1 2.1 4.4 1.5 8.5 3.7 4.1 2.3 7.7 5.3l-10.1 17q-2.7-2.1-5.6-3.7-3-1.6-6.3-2.6-3.2-1.2-6.5-1.7-3.3-0.6-6.8-0.7c-16.7 0.2-29 12.3-29 30.8 0 18.6 12.3 31 29 31q3.5-0.1 6.8-0.7 3.3-0.5 6.5-1.7 3.3-1.1 6.3-2.7 2.9-1.6 5.6-3.6l10.1 17q-3.6 2.9-7.7 5.2-4.1 2.3-8.5 3.7-4.5 1.5-9.1 2.1-4.7 0.6-9.3 0.4c-31.1 0-51.5-21.3-51.5-50.6zm196.5 48.1h-21v-11.6q-2.8 3.4-6.1 6.1-3.5 2.8-7.4 4.7-4 1.7-8.3 2.6-4.3 0.9-8.6 0.7c-27.2 0-48.4-21.2-48.4-50.7 0-29.3 21.3-50.6 48.4-50.6q4.3-0.2 8.6 0.7 4.3 0.9 8.3 2.7 3.9 1.9 7.4 4.6 3.3 2.7 6.1 6.2v-11.7h21zm-19.8-48.1c0-17.1-13-30.9-29.2-30.9-16.1 0-29.1 13.8-29.1 30.9 0 17.1 13 30.9 29.1 30.9 16.2 0 29.2-13.8 29.2-30.9zm-311.4-50.6q0 0-0.1 0 0 0-0.1 0zm45.7 50.6c0 2.8-0.2 5.4-0.4 8.1h-71.7c3.1 17.3 15.3 23.5 28.9 23.5q3.8 0 7.6-0.7 3.7-0.7 7.3-2 3.6-1.3 6.9-3 3.4-1.9 6.3-4.3l10.3 15.5q-4.1 3.5-8.8 6.1-4.6 2.6-9.7 4.3-5.1 1.8-10.3 2.6-5.4 0.8-10.7 0.6c-28.9 0-49.4-20-49.4-50.6 0-30 19.7-50.7 47.9-50.7 27 0 45.8 20.6 45.8 50.6zm-46.2-31.8c-14.9 0-23.3 9.4-25.6 23.4h50c-2.2-15-10.8-23.4-24.4-23.4zm526.1 80h-20.9v-11.7q-2.7 3.5-6.1 6.2-3.5 2.7-7.4 4.6-4 1.8-8.3 2.7-4.3 0.9-8.6 0.7c-27.2 0-48.4-21.3-48.4-50.6 0-29.5 21.3-50.7 48.4-50.7q4.3-0.1 8.6 0.7 4.3 0.9 8.3 2.6 3.9 1.9 7.4 4.7 3.4 2.6 6.1 6.1v-50.4h20.9zm25.2-8.8q0.3 0.1 0.6 0.1 0.3 0.1 0.6 0.2 0.3 0.1 0.6 0.2 0.3 0.1 0.6 0.3 0.2 0.1 0.5 0.3 0.2 0.1 0.5 0.3 0.2 0.2 0.4 0.4 0.2 0.2 0.4 0.5 0.2 0.2 0.4 0.4 0.2 0.3 0.3 0.6 0.1 0.2 0.3 0.5 0.2 0.6 0.3 1.1 0.2 0.6 0.2 1.2 0 0.6-0.2 1.2-0.1 0.6-0.3 1.2-0.2 0.3-0.3 0.5-0.1 0.3-0.3 0.5-0.2 0.3-0.4 0.5-0.2 0.2-0.4 0.5-0.2 0.2-0.4 0.4-0.3 0.1-0.5 0.3-0.3 0.2-0.5 0.3-0.3 0.2-0.6 0.3-0.3 0.1-0.6 0.2-0.3 0.1-0.6 0.2-0.3 0-0.6 0.1-0.3 0-0.5 0-1 0-1.9-0.3-0.8-0.2-1.6-0.7-0.8-0.5-1.4-1.2-0.6-0.8-1-1.6-0.2-0.6-0.4-1.2-0.1-0.6-0.1-1.2 0-0.6 0.1-1.2 0.2-0.5 0.4-1.1 0.2-0.6 0.6-1.1 0.3-0.5 0.8-0.9 0.4-0.4 0.9-0.7 0.5-0.4 1-0.6 0.4-0.1 0.7-0.2 0.3-0.1 0.6-0.2 0.4-0.1 0.7-0.1 0.3 0 0.6 0c0.2 0 0.3 0 0.5 0zm-0.5 10.9q0.1 0 0.4 0 0.2 0 0.4-0.1 0.3 0 0.5-0.1 0.2-0.1 0.4-0.2 0.3-0.1 0.5-0.2 0.2-0.1 0.4-0.2 0.1-0.1 0.3-0.3 0.2-0.1 0.4-0.3c0.5-0.5 0.9-1.2 1.2-2 0.2-0.7 0.2-1.5 0.1-2.3-0.2-0.7-0.5-1.4-1-2-0.5-0.7-1.1-1.1-1.9-1.4q-0.2-0.1-0.4-0.2-0.2-0.1-0.5-0.1-0.2-0.1-0.4-0.1-0.3 0-0.4 0c-1.3 0-2.5 0.5-3.4 1.4-0.9 0.9-1.4 2.1-1.4 3.3 0 1.3 0.5 2.5 1.4 3.4 0.9 0.9 2.1 1.4 3.4 1.4zm0.3-7.6q0.2-0.1 0.4 0 0.2 0 0.5 0.1 0.2 0 0.4 0.1 0.2 0.1 0.4 0.2 0.1 0.2 0.2 0.3 0.2 0.2 0.2 0.3 0.1 0.2 0.2 0.4 0 0.1 0 0.3 0 0.2 0 0.3-0.1 0.2-0.1 0.3-0.1 0.2-0.2 0.3-0.1 0.2-0.2 0.3-0.1 0.1-0.3 0.2-0.2 0.1-0.3 0.2-0.2 0-0.4 0.1-0.2 0-0.3 0l1.8 2.2h-1.4l-1.7-2.2h-0.6v2.2h-1.2v-5.6zm-1.4 1.1v1.4c0.1 0 1.5 0 1.6 0q0.1 0.1 0.2 0.1 0.1 0 0.2-0.1 0.1 0 0.2 0 0.1-0.1 0.2-0.2 0.1-0.2 0.1-0.4 0-0.1-0.1-0.3-0.1-0.1-0.2-0.1-0.1-0.1-0.2-0.1-0.1 0-0.2 0-0.1 0-0.2 0-0.1 0-0.2 0.1zm-43.2-43.6c0-17.1-13-30.9-29.1-30.9-16.1 0-29.1 13.8-29.1 30.9 0 17 13 30.8 29.1 30.8 16.1 0 29.1-13.8 29.1-30.8zm-766.5 48.1h-20.9v-11.7q-2.7 3.5-6.2 6.3-3.4 2.6-7.4 4.5-3.9 1.9-8.2 2.7-4.3 0.9-8.7 0.7c-27.1 0-48.3-21.2-48.3-50.6 0-29.5 21.3-50.6 48.3-50.6q4.4-0.2 8.6 0.6 4.3 0.9 8.2 2.6 4 1.9 7.4 4.6 3.4 2.7 6.2 6.1v-11.7h20.9v48.4zm-19.8-48.2c0-17.1-13.1-30.9-29.2-30.9-16.1 0-29.1 13.8-29.1 30.9 0 17.1 13 30.9 29.1 30.9 16.1 0 29.2-13.8 29.2-30.9zm279.7-31.9zm550.8 71.2q-0.1 0-0.1 0zm0 10.8h0.1q-0.1 0-0.1 0z"/>
</svg>